<svg width="218" height="381" viewBox="0 0 218 381" fill="none" xmlns="http://www.w3.org/2000/svg">
<path d="M216.8 137.152L108.576 13.8201L1.11377 136.357C0.551986 64.4833 32.3732 10.1385 67.7258 1.64584C74.0258 0.139753 88.7527 -1.9102 108.536 10.0967C128.8 -2.32856 143.768 -0.404113 150.228 1.10198C186.102 9.34364 217.964 64.2323 216.8 137.152Z" fill="#E95645"/>
<path d="M109.218 293.45C169.077 293.45 217.603 230.309 217.603 152.421C217.603 74.5333 169.077 11.3926 109.218 11.3926C49.3586 11.3926 0.833008 74.5333 0.833008 152.421C0.833008 230.309 49.3586 293.45 109.218 293.45Z" fill="black"/>
<path d="M44.291 39.4645C48.6649 34.9044 71.1364 10.4305 109.499 10.7233C149.105 11.0162 172.66 37.4983 176.712 42.0165L44.291 39.4645Z" fill="white"/>
<path d="M180.967 323.405L177.917 329.639C170.052 344.616 147.38 380.386 110.422 380.595C64.8773 380.846 40.7205 326.585 39.3561 323.405C11.347 232.036 14.5171 167.483 29.4045 158.698C41.7638 151.334 89.8769 168.864 105.607 174.93H105.687L105.968 175.055L109.74 176.896C109.901 177.231 110.021 177.524 110.182 177.817L110.623 176.896C110.623 176.896 110.462 176.813 110.182 176.729L114.275 175.097C129.523 169.24 178.439 151.251 190.959 158.698C205.806 167.483 208.976 232.036 180.967 323.405Z" fill="#E95645"/>
<path d="M110.624 176.897L110.182 177.818C110.022 177.483 109.901 177.19 109.741 176.897L105.969 175.057C108.015 175.851 109.46 176.395 110.182 176.73H110.222C110.463 176.814 110.624 176.897 110.624 176.897Z" fill="#E95645"/>
<path d="M110.623 176.898L110.182 177.818C110.021 177.483 109.901 177.191 109.74 176.898L110.182 176.73H110.222C110.463 176.814 110.623 176.898 110.623 176.898Z" fill="#E95645"/>
<path d="M180.967 323.406C180.726 324.034 179.683 326.293 177.917 329.64L180.967 323.406Z" fill="#E95645"/>
<path d="M94.0824 270.193C98.7405 258.213 111.439 251.793 122.444 255.853C133.45 259.912 138.595 272.914 133.937 284.894C129.279 296.873 116.581 303.293 105.576 299.234C94.5699 295.174 89.4243 282.172 94.0824 270.193Z" fill="#461E81"/>
<path d="M94.0697 293.959C95.741 289.131 100.9 286.522 105.594 288.131C110.287 289.74 112.736 294.959 111.065 299.787C109.394 304.615 104.234 307.225 99.5413 305.615C94.8481 304.006 92.3984 298.787 94.0697 293.959Z" fill="#461E81"/>
<path d="M96.0606 294.34C96.0606 294.34 77.9557 295.712 61.9823 312.921C60.3667 314.535 57.6365 314.147 56.1573 312.225C54.7403 310.385 54.8813 307.678 56.5741 306.317C59.0709 303.927 62.7432 300.815 67.2736 297.265C73.2693 292.568 80.5551 287.532 85.7138 286.172C96.033 283.449 100.185 281.191 100.185 281.191L96.0606 294.34Z" fill="#461E81"/>
<path d="M93.3432 287.972C93.3432 287.972 71.6575 281.328 43.2719 290.273C40.4734 291.058 37.5504 289.507 36.9544 287.082C36.3844 284.761 38.1127 282.317 40.855 281.798C45.117 280.675 51.1567 279.401 58.4394 278.098C68.0755 276.374 79.3951 274.897 86.1349 275.893C99.6162 277.883 105.716 277.608 105.716 277.608L93.3432 287.972Z" fill="#461E81"/>
<path d="M98.9868 273.303C98.9868 273.303 81.3184 259.503 68.4843 230.848C67.164 228.08 64.3982 226.614 62.6054 227.579C60.8886 228.503 60.5609 231.389 62.0012 233.951C64.0588 238.121 67.154 243.839 71.0254 250.596C76.1465 259.535 82.4843 269.706 87.352 274.64C97.0889 284.504 100.804 289.673 100.804 289.673L98.9868 273.303Z" fill="#461E81"/>
<path d="M107.566 271.118C107.566 271.118 100.074 249.475 107.066 217.541C107.664 214.413 106.029 211.629 103.689 211.491C101.448 211.36 99.2131 213.694 98.866 216.708C98.0275 221.457 97.1387 228.124 96.2894 236.113C95.1635 246.684 94.3673 258.991 95.6764 265.937C98.2971 279.829 98.3607 286.354 98.3607 286.354L107.566 271.118Z" fill="#461E81"/>
<path d="M107.086 298.495C107.086 298.495 115.085 315.839 110.897 339.163C110.563 341.459 112.187 343.775 114.271 344.172C116.265 344.551 118.099 343.064 118.218 340.824C118.663 337.33 119.032 332.389 119.283 326.438C119.615 318.568 119.548 309.34 117.952 303.911C114.758 293.053 114.288 288.099 114.288 288.099L107.086 298.495Z" fill="#461E81"/>
<path d="M115.903 297.919C115.903 297.919 130.576 314.167 138.023 343.94C138.822 346.829 141.237 348.704 143.135 348.07C144.95 347.465 145.764 344.734 144.814 342.025C143.548 337.661 141.543 331.629 138.973 324.47C135.572 314.997 131.208 304.131 127.36 298.564C119.665 287.43 116.967 281.826 116.967 281.826L115.903 297.919Z" fill="#461E81"/>
<path d="M124.385 284.388C124.385 284.388 145.392 295.17 175.422 292.597C178.371 292.435 181.107 294.507 181.361 296.925C181.605 299.237 179.503 301.191 176.651 301.114C172.172 301.291 165.873 301.242 158.313 300.966C148.31 300.599 136.633 299.647 129.95 297.308C116.583 292.628 110.367 291.625 110.367 291.625L124.385 284.388Z" fill="#461E81"/>
<path d="M123.795 278.278C123.795 278.278 144.83 274.03 165.861 249.44C167.971 247.119 171.048 247.255 172.453 249.556C173.797 251.758 173.217 255.306 171.056 257.309C167.817 260.762 163.109 265.316 157.349 270.556C149.728 277.489 140.57 285.039 134.426 287.514C122.135 292.463 117.012 295.972 117.012 295.972L123.795 278.278Z" fill="#461E81"/>
<path d="M95.1711 298.828C95.1711 298.828 88.6356 302.091 94.2473 309.184L98.6597 302.295L95.1711 298.828Z" fill="#461E81"/>
<path d="M104.311 304.277C104.311 304.277 105.33 312.43 96.925 310.704L99.8047 302.7L104.311 304.277Z" fill="#461E81"/>
</svg>
