<svg width="117" height="115" viewBox="0 0 117 115" fill="none" xmlns="http://www.w3.org/2000/svg">
<path d="M52.8381 49.8166C56.345 41.5927 65.1393 37.0151 72.4808 39.592C79.8222 42.169 82.9308 50.9247 79.4239 59.1485C75.9171 67.3723 67.1228 71.95 59.7813 69.3731C52.4399 66.7961 49.3313 58.0404 52.8381 49.8166Z" fill="#5C3EAF"/>
<path d="M52.1605 65.9903C53.4343 62.6796 57.0076 60.8194 60.1418 61.8354C63.276 62.8514 64.7842 66.3588 63.5104 69.6695C62.2367 72.9802 58.6633 74.8404 55.5291 73.8244C52.3949 72.8084 50.8868 69.3009 52.1605 65.9903Z" fill="#5C3EAF"/>
<path d="M53.5053 66.2252C53.5053 66.2252 41.1757 67.4687 29.8386 79.4622C28.6956 80.589 26.8534 80.3711 25.9044 79.0876C24.9953 77.8589 25.1687 76.0123 26.3569 75.0565C28.1204 73.3862 30.7026 71.2039 33.8799 68.7087C38.0847 65.4073 43.175 61.8532 46.716 60.8388C53.7992 58.8079 56.6823 57.1993 56.6823 57.1993L53.5053 66.2252Z" fill="#5C3EAF"/>
<path d="M51.8267 61.9496C51.8267 61.9496 37.2998 57.7998 17.7827 64.3828C15.8613 64.9662 13.9219 63.9602 13.5865 62.3185C13.2658 60.7474 14.5082 59.0531 16.3838 58.652C19.308 57.8141 23.4428 56.8419 28.422 55.8283C35.0101 54.4873 42.7336 53.2853 47.2789 53.8474C56.3707 54.9696 60.5179 54.6771 60.5179 54.6771L51.8267 61.9496Z" fill="#5C3EAF"/>
<path d="M56.0625 51.8756C56.0625 51.8756 44.452 42.7934 36.5375 23.5218C35.7183 21.662 33.8814 20.7121 32.6374 21.3997C31.4462 22.0582 31.1432 24.027 32.0496 25.7448C33.3304 28.546 35.2723 32.3826 37.7124 36.9119C40.9399 42.9046 44.9592 49.7141 48.1264 52.9859C54.4619 59.5277 56.8401 62.9797 56.8401 62.9797L56.0625 51.8756Z" fill="#5C3EAF"/>
<path d="M61.9311 50.2421C61.9311 50.2421 57.447 35.646 63.0843 13.7958C63.5775 11.6571 62.5447 9.79085 60.9597 9.73757C59.4414 9.68735 57.859 11.3141 57.5394 13.3709C56.8377 16.6169 56.0485 21.1687 55.2492 26.6193C54.1902 33.8317 53.3067 42.2196 54.0021 46.9233C55.3947 56.3303 55.256 60.7695 55.256 60.7695L61.9311 50.2421Z" fill="#5C3EAF"/>
<path d="M60.8668 68.8378C60.8668 68.8378 65.8081 80.5012 62.3062 96.4414C62.0144 98.0092 63.0517 99.5567 64.4555 99.7916C65.7991 100.016 67.086 98.9722 67.2302 97.4462C67.6309 95.0615 68.0208 91.6935 68.3594 87.641C68.807 82.2804 69.0222 76.0037 68.0919 72.3373C66.2298 65.0047 66.0506 61.6423 66.0506 61.6423L60.8668 68.8378Z" fill="#5C3EAF"/>
<path d="M66.8607 68.2926C66.8607 68.2926 76.3642 79.0914 80.5857 99.2127C81.0474 101.164 82.6336 102.397 83.9393 101.934C85.1883 101.491 85.8173 99.6195 85.2485 97.7932C84.5107 94.847 83.319 90.7791 81.7752 85.9538C79.732 79.5698 77.0742 72.2543 74.6186 68.5343C69.7074 61.0942 68.0333 57.3294 68.0333 57.3294L66.8607 68.2926Z" fill="#5C3EAF"/>
<path d="M72.9852 58.9136C72.9852 58.9136 86.9319 65.9006 107.39 63.6387C109.396 63.4781 111.194 64.8434 111.296 66.4856C111.395 68.0564 109.912 69.4229 107.978 69.4191C104.933 69.6154 100.658 69.689 95.5349 69.629C88.7557 69.5491 80.8571 69.0984 76.3887 67.6188C67.4512 64.6579 63.2605 64.0801 63.2605 64.0801L72.9852 58.9136Z" fill="#5C3EAF"/>
<path d="M72.7331 54.7999C72.7331 54.7999 87.1346 51.5463 102.115 34.4396C103.613 32.8227 105.699 32.8626 106.586 34.4051C107.436 35.8823 106.941 38.308 105.417 39.7096C103.119 42.1164 99.7927 45.2986 95.7326 48.9656C90.3607 53.8178 83.9282 59.1164 79.6861 60.9077C71.2011 64.4887 67.6224 66.9661 67.6224 66.9661L72.7331 54.7999Z" fill="#5C3EAF"/>
<path d="M52.7622 69.2875C52.7622 69.2875 48.2338 71.6232 51.8479 76.3522L55.035 71.5861L52.7622 69.2875Z" fill="#5C3EAF"/>
<path d="M58.8184 72.8336C58.8184 72.8336 59.2803 78.3674 53.622 77.3376L55.8028 71.8381L58.8184 72.8336Z" fill="#5C3EAF"/>
</svg>
