<svg width="443" height="463" viewBox="0 0 443 463" fill="none" xmlns="http://www.w3.org/2000/svg">
<g clip-path="url(#clip0)">
<path d="M165.856 360.107C157.244 346.904 156.551 328.231 156.551 328.231C156.941 334.023 170.182 348.206 170.182 348.206L221.48 373.372L230.774 377.816C230.774 377.816 237.832 404.898 247.792 412.406C257.752 419.914 257.12 412.066 257.12 412.066L245.843 369.635C245.843 369.635 195.658 303.712 162.822 293.375L91.3613 100.293L23.9966 179.478L134.123 342.851C134.123 342.851 134.113 385.031 162.512 414.521C162.512 414.521 153.931 386.417 166.313 362.047L165.856 360.107Z" fill="#5C3EAF"/>
<path d="M231.234 423.978L196.964 352.772C196.964 352.772 195.167 340.773 205.209 349.731C215.251 358.689 254.283 419.157 254.283 419.157C254.283 419.157 249.909 425.908 245.996 426.415C242.083 426.923 231.234 423.978 231.234 423.978Z" fill="#5C3EAF"/>
<path d="M236 433.32L195.504 350.169C195.504 350.169 191.206 340.953 186.22 338.142C181.234 335.331 183.211 349.52 183.211 349.52C183.211 349.52 186.846 361.165 186.026 363.702C185.207 366.239 205.544 428.923 209.382 433.366C213.22 437.81 219.019 439.169 222.189 438.871C225.36 438.572 236 433.32 236 433.32Z" fill="#5C3EAF"/>
<path d="M191.052 438.921L168.238 386.873L174.024 363.25C174.024 363.25 178.502 355.189 180.782 363.123C180.782 363.123 182.908 379.231 182.226 382.068C181.544 384.907 201.886 418.237 201.886 418.237L208.408 433.951C208.411 433.952 201.529 442.21 191.052 438.921Z" fill="#5C3EAF"/>
<path d="M177.13 438.394L170.083 423.537C170.046 423.458 170.013 423.377 169.988 423.294L162.116 398.295C162.054 398.1 162.024 397.899 162.028 397.695C162.064 395.424 162.368 381.28 164.211 379.342C164.731 378.797 165.228 378.403 165.68 378.119C166.72 377.469 168.094 378.029 168.441 379.211L168.729 380.185C168.824 380.505 168.832 380.846 168.753 381.17L167.151 387.799C167.052 388.209 167.092 388.641 167.265 389.025L189.52 438.588C189.912 439.463 189.61 440.529 188.772 440.991C187.291 441.81 184.201 442.244 178.014 439.287C177.628 439.102 177.315 438.783 177.13 438.394Z" fill="#5C3EAF"/>
<path d="M161.455 361.339C152.904 348.261 151.649 330.142 151.649 330.142C152.204 335.768 165.153 349.947 165.153 349.947L214.351 376.014L223.262 380.626C223.262 380.626 230.794 407.102 240.431 414.704C250.069 422.307 249.22 414.68 249.22 414.68L237.213 373.19C237.213 373.19 187.746 307.661 156.44 296.569L83.835 109.141L15.2027 170.351L130.965 343.579C130.965 343.579 134.772 385.016 162.513 414.522C162.513 414.522 151.058 386.447 161.948 363.234L161.455 361.339Z" fill="#8569B4"/>
<path d="M232.157 421.717L200.527 356.404C200.527 356.404 198.869 345.398 208.138 353.617C217.408 361.836 252.861 417.7 252.861 417.7C252.861 417.7 249.396 423.493 245.784 423.957C242.173 424.421 232.157 421.717 232.157 421.717Z" fill="#8569B4"/>
<path d="M248.07 423.445C250.847 421.717 253.051 418.075 253.166 417.881L253.279 417.692L253.162 417.506C251.714 415.224 217.576 361.505 208.375 353.348C205.302 350.624 203.101 349.685 201.642 350.478C199.459 351.639 200.146 356.262 200.176 356.457L200.208 356.559L231.908 422.02L232.065 422.063C232.477 422.174 242.191 424.777 245.83 424.31C246.597 424.21 247.353 423.892 248.07 423.445ZM252.438 417.701C251.816 418.68 248.786 423.212 245.738 423.602C242.48 424.02 233.692 421.754 232.407 421.415L200.873 356.298C200.697 355.062 200.541 351.893 201.982 351.105C202.771 350.677 204.438 350.812 207.901 353.883C216.759 361.737 250.156 414.115 252.438 417.701Z" fill="#5C3EAF"/>
<path d="M234.325 430.829L198.198 353.786C198.198 353.786 194.231 345.333 189.629 342.753C185.028 340.174 186.853 353.188 186.853 353.188C186.853 353.188 190.208 363.87 189.452 366.196C188.696 368.523 207.464 426.017 211.006 430.093C214.548 434.169 219.767 435.405 222.693 435.131C225.618 434.858 234.325 430.829 234.325 430.829Z" fill="#8569B4"/>
<path d="M234.801 431.002L234.648 430.678L198.521 353.634C198.357 353.285 194.454 345.048 189.804 342.441C188.951 341.965 188.227 341.944 187.62 342.339C185.27 343.946 186.367 352.292 186.5 353.238C187.436 356.236 189.704 364.267 189.112 366.085C188.155 369.03 207.557 426.668 210.737 430.328C214.207 434.318 219.384 435.8 222.727 435.487C225.68 435.212 234.121 431.318 234.477 431.154L234.801 431.002ZM188.056 342.906C188.412 342.685 188.87 342.738 189.453 343.065C193.902 345.558 197.835 353.854 197.875 353.937L233.85 430.654C232.244 431.383 225.176 434.542 222.659 434.777C220.016 435.023 214.805 433.918 211.275 429.859C207.428 425.433 189.308 368.326 189.791 366.301C190.571 363.899 187.33 353.522 187.193 353.082C186.863 350.689 186.34 344.077 188.023 342.929C188.034 342.92 188.045 342.913 188.056 342.906Z" fill="#5C3EAF"/>
<path d="M195.824 436.625L174.769 388.885L180.111 367.219C180.111 367.219 184.245 359.827 186.348 367.104C186.348 367.104 188.31 381.877 187.681 384.481C187.052 387.085 204.343 418.106 204.343 418.106L210.839 432.358C210.839 432.358 205.493 439.644 195.824 436.625Z" fill="#8569B4"/>
<path d="M180.174 437.043L173.671 423.415C173.636 423.344 173.607 423.269 173.583 423.191L166.317 400.26C166.262 400.082 166.234 399.897 166.236 399.71C166.27 397.628 166.551 384.653 168.253 382.878C168.731 382.379 169.191 382.018 169.608 381.758C170.567 381.161 171.834 381.676 172.156 382.759L172.421 383.652C172.508 383.945 172.515 384.258 172.443 384.556L170.965 390.635C170.872 391.011 170.911 391.406 171.069 391.76L191.608 437.222C191.971 438.024 191.695 440.161 190.921 440.585C189.554 441.336 186.698 440.574 180.988 437.862C180.631 437.692 180.342 437.399 180.174 437.043Z" fill="#8569B4"/>
<path d="M398.419 311.176C398.419 311.176 335.956 403.616 270.376 334.665L398.419 311.176Z" fill="#8E322B"/>
<path d="M338.02 338.994C302.22 345.959 271.496 342.831 269.396 332.009C267.296 321.186 294.616 306.767 330.416 299.802C366.216 292.837 396.94 295.965 399.04 306.787C401.14 317.61 373.82 332.029 338.02 338.994Z" fill="#E95645"/>
<path d="M319.736 307.364C310.03 306.59 302.598 300.525 303.138 293.818C303.677 287.11 311.983 282.3 321.69 283.073C331.396 283.847 338.827 289.912 338.288 296.62C337.748 303.328 329.442 308.138 319.736 307.364Z" fill="#5C3EAF"/>
<path d="M336.264 303.411C332.387 303.216 329.361 300.754 329.506 297.911C329.651 295.069 332.912 292.923 336.789 293.118C340.666 293.313 343.692 295.775 343.547 298.618C343.402 301.46 340.141 303.607 336.264 303.411Z" fill="#5C3EAF"/>
<path d="M335.581 302.342C335.581 302.342 340.614 312.707 355.902 319.638C357.363 320.356 357.718 322.002 356.75 323.13C355.824 324.211 353.956 324.504 352.649 323.705C350.463 322.58 347.521 320.87 344.087 318.72C339.544 315.875 334.478 312.324 332.387 309.505C328.202 303.865 325.731 301.757 325.731 301.757L335.581 302.342Z" fill="#5C3EAF"/>
<path d="M331.365 305.641C331.365 305.641 331.807 319.044 343.98 334.178C345.117 335.684 344.745 337.58 343.283 338.254C341.884 338.9 339.895 338.237 338.946 336.728C337.263 334.426 335.087 331.12 332.615 327.101C329.346 321.784 325.865 315.464 325.025 311.444C323.344 303.404 321.811 299.927 321.811 299.927L331.365 305.641Z" fill="#5C3EAF"/>
<path d="M320.147 304.594C320.147 304.594 314.54 317.708 297.133 330.002C295.472 331.24 295.091 333.189 296.215 334.169C297.291 335.106 299.435 334.883 300.921 333.601C303.408 331.693 306.753 328.905 310.653 325.477C315.813 320.942 321.561 315.463 323.915 311.682C328.622 304.119 331.423 301.025 331.423 301.025L320.147 304.594Z" fill="#5C3EAF"/>
<path d="M317.457 300.906C317.457 300.906 303.85 308.679 279.46 309.05C277.092 309.14 275.502 310.553 275.963 312.012C276.405 313.41 278.599 314.443 280.827 314.215C284.406 314.036 289.361 313.607 295.248 312.961C303.037 312.107 311.983 310.796 316.612 308.975C325.869 305.331 330.497 304.338 330.497 304.338L317.457 300.906Z" fill="#5C3EAF"/>
<path d="M336.836 294.836C336.836 294.836 347.29 287.339 364.932 286.509C366.65 286.379 367.912 285.034 367.696 283.685C367.488 282.394 365.988 281.478 364.361 281.732C361.762 281.97 358.149 282.467 353.845 283.184C348.151 284.134 341.585 285.529 338.095 287.314C331.116 290.885 327.695 291.903 327.695 291.903L336.836 294.836Z" fill="#5C3EAF"/>
<path d="M334.963 290.412C334.963 290.412 343.058 278.591 362.632 269.337C364.512 268.39 365.27 266.566 364.352 265.45C363.474 264.383 361.314 264.276 359.599 265.292C356.773 266.76 352.929 268.951 348.411 271.674C342.436 275.277 335.693 279.705 332.632 283.002C326.51 289.597 323.142 292.166 323.142 292.166L334.963 290.412Z" fill="#5C3EAF"/>
<path d="M324.338 287.411C324.338 287.411 326.863 273.726 318.371 256.637C317.598 254.947 318.377 253.072 319.946 252.592C321.447 252.132 323.235 253.084 323.825 254.751C324.952 257.328 326.337 260.994 327.853 265.423C329.859 271.284 331.847 278.198 331.778 282.401C331.638 290.809 332.363 294.558 332.363 294.558L324.338 287.411Z" fill="#5C3EAF"/>
<path d="M319.815 289.763C319.815 289.763 312.121 278.044 290.542 269.158C288.476 268.246 287.868 266.426 289.118 265.284C290.316 264.191 292.869 264.037 294.73 265.022C297.825 266.438 302.007 268.559 306.896 271.201C313.366 274.696 320.607 279.005 323.697 282.256C329.877 288.76 333.44 291.27 333.44 291.27L319.815 289.763Z" fill="#5C3EAF"/>
<path d="M339.35 301.994C339.35 301.994 343.191 305.47 346.867 301.059L340.971 299.388L339.35 301.994Z" fill="#5C3EAF"/>
<path d="M341.257 295.708C341.257 295.708 346.687 293.95 347.435 299.181L341.206 298.605L341.257 295.708Z" fill="#5C3EAF"/>
<path d="M399.116 307.461C399.585 307.169 400.05 306.866 400.509 306.549C417.747 294.669 421.479 269.855 408.826 251.234C402.468 241.878 392.696 235.366 382.016 233.368C372.257 231.542 362.513 233.532 354.593 239.006C337.354 250.885 333.623 275.699 346.275 294.319C352.633 303.676 362.405 310.188 373.084 312.187C382.278 313.906 391.457 312.229 399.116 307.461ZM357.115 239.911C364.318 235.427 372.956 233.851 381.621 235.472C391.745 237.366 401.015 243.549 407.055 252.44C419.051 270.091 415.568 293.573 399.294 304.788C391.845 309.921 382.674 311.802 373.48 310.082C363.357 308.188 354.087 302.002 348.048 293.113C336.053 275.464 339.534 251.981 355.809 240.765C356.237 240.471 356.673 240.186 357.115 239.911Z" fill="#F6AE32"/>
<path d="M349.895 361.847C373.917 346.897 394.43 318.818 404.009 304.306C404.403 303.711 404.74 303.198 404.821 303.096L404.041 302.491L403.755 301.358C403.32 301.466 403.319 301.467 402.223 303.128C388.873 323.355 354.025 370.32 318.819 369.629C302.799 369.313 288.537 358.985 276.432 338.933C261.339 313.931 258.771 292.878 268.796 276.358C279.442 258.816 302.564 249.489 320.084 244.758C339.565 239.494 356.814 238.529 357.84 238.592L357.905 237.563L357.971 237.536L358.752 238.27L358.773 236.823C358.445 236.452 358.184 236.159 349.916 237.039C345.502 237.508 338.539 238.421 330.425 240.099C316.347 243.014 296.462 248.767 281.676 259.65C270.14 268.137 263.276 278.534 261.27 290.55C258.891 304.802 263.375 321.452 274.593 340.039C287.104 360.763 301.967 371.439 318.77 371.769C329.396 371.979 339.948 368.038 349.895 361.847Z" fill="#F6AE32"/>
<path d="M276.528 341.081L277.742 342.844L228.074 377.066L226.859 375.304L276.528 341.081Z" fill="#F6AE32"/>
<path d="M200.698 334.956L257.872 419.035L256.101 420.24L198.927 336.16L200.698 334.956Z" fill="#F6AE32"/>
</g>
<defs>
<clipPath id="clip0">
<rect width="297.41" height="359.165" fill="white" transform="matrix(-0.848985 0.528416 0.528416 0.848985 252.497 0)"/>
</clipPath>
</defs>
</svg>
