<svg width="85" height="78" viewBox="0 0 85 78" fill="none" xmlns="http://www.w3.org/2000/svg">
<path d="M35.2681 43.854C37.6539 49.4487 43.6368 52.563 48.6314 50.8098C53.6259 49.0567 55.7408 43.1 53.355 37.5052C50.9692 31.9105 44.9863 28.7962 39.9917 30.5494C34.9971 32.3025 32.8823 38.2592 35.2681 43.854Z" fill="#5C3EAF"/>
<path d="M34.8084 32.8508C35.675 35.1031 38.106 36.3686 40.2382 35.6774C42.3705 34.9862 43.3966 32.6 42.53 30.3477C41.6634 28.0954 39.2324 26.8299 37.1001 27.5211C34.9679 28.2123 33.9418 30.5985 34.8084 32.8508Z" fill="#5C3EAF"/>
<path d="M35.723 32.6925C35.723 32.6925 27.3349 31.8465 19.622 23.6871C18.8444 22.9206 17.5911 23.0688 16.9455 23.942C16.327 24.7779 16.445 26.0342 17.2533 26.6844C18.4531 27.8208 20.2098 29.3054 22.3714 31.003C25.232 33.2489 28.6951 35.6668 31.1041 36.357C35.9229 37.7386 37.8844 38.833 37.8844 38.833L35.723 32.6925Z" fill="#5C3EAF"/>
<path d="M34.5803 35.5989C34.5803 35.5989 24.6973 38.4221 11.4194 33.9436C10.1122 33.5467 8.79281 34.2311 8.56463 35.348C8.34643 36.4168 9.19165 37.5695 10.4677 37.8423C12.4571 38.4124 15.2701 39.0738 18.6575 39.7633C23.1396 40.6756 28.394 41.4933 31.4863 41.1109C37.6717 40.3475 40.4931 40.5465 40.4931 40.5465L34.5803 35.5989Z" fill="#5C3EAF"/>
<path d="M37.4627 42.4544C37.4627 42.4544 29.5638 48.6332 24.1794 61.744C23.6221 63.0093 22.3724 63.6556 21.5261 63.1878C20.7156 62.7398 20.5096 61.4004 21.1262 60.2317C21.9975 58.326 23.3187 55.7159 24.9787 52.6345C27.1744 48.5575 29.9089 43.9249 32.0636 41.699C36.3738 37.2485 37.9917 34.9 37.9917 34.9L37.4627 42.4544Z" fill="#5C3EAF"/>
<path d="M41.4543 43.5646C41.4543 43.5646 38.4037 53.4946 42.2388 68.3598C42.5744 69.8149 41.8717 71.0845 40.7934 71.1207C39.7605 71.1549 38.684 70.0482 38.4665 68.6489C37.9892 66.4406 37.4522 63.3439 36.9085 59.6357C36.188 54.729 35.5869 49.0224 36.0601 45.8224C37.0074 39.4226 36.9131 36.4025 36.9131 36.4025L41.4543 43.5646Z" fill="#5C3EAF"/>
<path d="M40.7312 30.9125C40.7312 30.9125 44.093 22.9777 41.7105 12.1332C41.512 11.0666 42.2177 10.0138 43.1728 9.85397C44.0868 9.70158 44.9623 10.4115 45.0604 11.4496C45.333 13.072 45.5983 15.3633 45.8287 18.1203C46.1332 21.7672 46.2795 26.0374 45.6467 28.5317C44.3798 33.5202 44.2579 35.8077 44.2579 35.8077L40.7312 30.9125Z" fill="#5C3EAF"/>
<path d="M44.8079 31.2845C44.8079 31.2845 51.2733 23.9378 54.1453 10.2488C54.4594 8.92158 55.5385 8.08229 56.4268 8.3976C57.2766 8.69913 57.7045 9.97205 57.3175 11.2145C56.8155 13.2188 56.0048 15.9863 54.9546 19.2692C53.5645 23.6123 51.7564 28.5893 50.0857 31.1201C46.7445 36.1817 45.6056 38.743 45.6056 38.743L44.8079 31.2845Z" fill="#5C3EAF"/>
<path d="M48.9749 37.6665C48.9749 37.6665 58.4631 32.9131 72.3815 34.452C73.7462 34.5612 74.969 33.6324 75.0389 32.5151C75.1058 31.4464 74.0969 30.5168 72.7813 30.5194C70.7097 30.3858 67.8015 30.3358 64.3159 30.3766C59.7039 30.4309 54.3303 30.7376 51.2903 31.7442C45.21 33.7585 42.3589 34.1516 42.3589 34.1516L48.9749 37.6665Z" fill="#5C3EAF"/>
<path d="M48.803 40.4646C48.803 40.4646 58.6006 42.6782 68.7918 54.3163C69.8112 55.4164 71.2301 55.3892 71.834 54.3398C72.4121 53.3348 72.0751 51.6846 71.0382 50.731C69.4749 49.0936 67.2122 46.9287 64.45 44.4339C60.7954 41.1328 56.4192 37.528 53.5332 36.3093C47.7607 33.8731 45.326 32.1876 45.326 32.1876L48.803 40.4646Z" fill="#5C3EAF"/>
<path d="M35.2169 30.6078C35.2169 30.6078 32.1362 29.0188 34.5949 25.8015L36.7632 29.044L35.2169 30.6078Z" fill="#5C3EAF"/>
<path d="M39.3372 28.1957C39.3372 28.1957 39.6515 24.4313 35.802 25.1318L37.2856 28.8729L39.3372 28.1957Z" fill="#5C3EAF"/>
</svg>
