<svg width="124" height="102" viewBox="0 0 124 102" fill="none" xmlns="http://www.w3.org/2000/svg">
<path d="M49.0827 54.1911C43.8238 47.5861 44.3061 39.3635 50.16 35.8254C56.0139 32.2873 65.0226 34.7735 70.2815 41.3785C75.5405 47.9835 75.0582 56.2061 69.2043 59.7442C63.3504 63.2823 54.3417 60.7962 49.0827 54.1911Z" fill="#5C3EAF"/>
<path d="M63.0204 62.7158C60.8334 60.1431 61.0235 56.7989 63.445 55.2464C65.8664 53.6939 69.6023 54.5209 71.7892 57.0937C73.9762 59.6664 73.7861 63.0105 71.3646 64.563C68.9432 66.1155 65.2073 65.2885 63.0204 62.7158Z" fill="#5C3EAF"/>
<path d="M64.0313 61.3048C64.0313 61.3048 58.949 70.5366 62.2864 84.3288C62.562 85.679 61.5046 86.8611 60.0952 86.8974C58.7456 86.9327 57.4667 85.9088 57.3392 84.6105C56.9643 82.5606 56.6097 79.6877 56.3138 76.2457C55.9228 71.691 55.7761 66.3933 56.7504 63.4207C58.6982 57.4737 58.9137 54.6708 58.9137 54.6708L64.0313 61.3048Z" fill="#5C3EAF"/>
<path d="M58.2189 60.2181C58.2189 60.2181 48.4856 68.1717 43.9639 84.5578C43.4733 86.1406 41.8559 86.9906 40.5433 86.4494C39.2875 85.9314 38.678 84.2904 39.2755 82.8242C40.0574 80.4387 41.3126 77.1653 42.9346 73.2971C45.081 68.179 47.8576 62.3524 50.385 59.5186C55.4387 53.8492 57.1779 50.886 57.1779 50.886L58.2189 60.2181Z" fill="#5C3EAF"/>
<path d="M52.2514 51.7571C52.2514 51.7571 38.3193 56.02 17.9914 51.7526C15.999 51.3849 14.198 52.3263 14.0804 53.6938C13.9677 55.0033 15.4306 56.3241 17.3536 56.5445C20.3803 57.0611 24.6295 57.619 29.7274 58.1602C36.4718 58.8771 44.3298 59.4114 48.788 58.6841C57.7035 57.2277 61.8753 57.2275 61.8753 57.2275L52.2514 51.7571Z" fill="#5C3EAF"/>
<path d="M52.7504 48.4247C52.7504 48.4247 38.4611 44.0483 23.7223 27.9643C22.248 26.4352 20.1736 26.2302 19.2765 27.425C18.4179 28.57 18.8889 30.6649 20.3899 32.016C22.6527 34.3006 25.9305 37.354 29.9341 40.8977C35.2309 45.5879 41.5787 50.7738 45.7797 52.7627C54.1824 56.7391 57.7191 59.2298 57.7191 59.2298L52.7504 48.4247Z" fill="#5C3EAF"/>
<path d="M70.528 58.5369C70.528 58.5369 82.7687 60.9923 93.9217 72.3548C95.0472 73.4313 96.8789 73.4591 97.8347 72.4902C98.7487 71.5624 98.5937 69.9929 97.4222 69.0543C95.6867 67.4507 93.1399 65.3232 90.0044 62.8652C85.8568 59.6141 80.8323 56.0486 77.3232 54.7902C70.3044 52.2749 67.4526 50.5948 67.4526 50.5948L70.528 58.5369Z" fill="#5C3EAF"/>
<path d="M72.3786 55.1591C72.3786 55.1591 86.8363 53.389 106.147 61.1719C108.049 61.8834 109.984 61.27 110.332 59.938C110.666 58.6638 109.448 57.1008 107.591 56.547C104.695 55.5057 100.6 54.2102 95.6685 52.7803C89.1435 50.8894 81.4876 48.9824 76.97 48.9199C67.9347 48.7949 63.8213 48.0651 63.8213 48.0651L72.3786 55.1591Z" fill="#5C3EAF"/>
<path d="M68.318 46.4048C68.318 46.4048 80.1258 40.1034 88.329 24.8128C89.1779 23.3432 91.0384 22.7557 92.2846 23.4782C93.4768 24.1692 93.7585 25.8588 92.8245 27.1989C91.5013 29.4069 89.4964 32.409 86.9856 35.9354C83.6629 40.6013 79.5309 45.8647 76.3009 48.2505C69.8394 53.0216 67.4003 55.6506 67.4003 55.6506L68.318 46.4048Z" fill="#5C3EAF"/>
<path d="M62.7205 44.4395C62.7205 44.4395 67.3687 32.6818 61.9538 13.6756C61.4825 11.8211 62.5374 10.3707 64.1259 10.5066C65.6469 10.6371 67.2153 12.1841 67.513 13.9505C68.1814 16.7587 68.9235 20.6744 69.6671 25.347C70.651 31.5295 71.4471 38.68 70.7001 42.5547C69.2045 50.3037 69.296 54.0496 69.296 54.0496L62.7205 44.4395Z" fill="#5C3EAF"/>
<path d="M66.4859 63.8661C66.4859 63.8661 65.9727 68.4753 71.6266 68.2512L69.5044 63.3712L66.4859 63.8661Z" fill="#5C3EAF"/>
<path d="M72.5736 61.583C72.5736 61.583 77.0795 64.0638 73.4164 67.6355L70.2765 63.2593L72.5736 61.583Z" fill="#5C3EAF"/>
</svg>
