<svg width="116" height="106" viewBox="0 0 116 106" fill="none" xmlns="http://www.w3.org/2000/svg">
<path d="M47.9887 45.5648C51.2534 37.875 59.388 33.5795 66.1579 35.9704C72.9279 38.3613 75.7695 46.5332 72.5049 54.223C69.2402 61.9127 61.1056 66.2083 54.3357 63.8174C47.5657 61.4265 44.7241 53.2545 47.9887 45.5648Z" fill="#8569B4"/>
<path d="M47.3399 60.648C48.5267 57.552 51.832 55.8061 54.7225 56.7484C57.6129 57.6907 58.994 60.9643 57.8072 64.0603C56.6203 67.1563 53.315 68.9021 50.4245 67.9599C47.5341 67.0176 46.153 63.7439 47.3399 60.648Z" fill="#8569B4"/>
<path d="M48.5853 60.8377C48.5853 60.8377 37.1684 62.0217 26.6363 73.2063C25.5747 74.2572 23.8702 74.0585 22.9958 72.8662C22.1582 71.7249 22.3245 70.0063 23.4274 69.1143C25.065 67.5563 27.4621 65.52 30.4111 63.1913C34.3137 60.1103 39.0368 56.7921 42.3177 55.8404C48.8807 53.9353 51.5545 52.4322 51.5545 52.4322L48.5853 60.8377Z" fill="#8569B4"/>
<path d="M47.0097 56.8239C47.0097 56.8239 33.5841 52.9986 15.5111 59.1537C13.7321 59.6996 11.941 58.7691 11.6355 57.2447C11.3434 55.7859 12.4976 54.2094 14.2338 53.833C16.9412 53.0486 20.7688 52.1371 25.3776 51.1853C31.4757 49.9261 38.6236 48.7938 42.8265 49.3066C51.2333 50.3305 55.0704 50.0503 55.0704 50.0503L47.0097 56.8239Z" fill="#8569B4"/>
<path d="M50.9517 47.4392C50.9517 47.4392 40.1907 38.9865 32.8944 21.0155C32.1388 19.2813 30.4349 18.3985 29.2769 19.0429C28.168 19.66 27.8807 21.4983 28.7177 23.0997C29.8994 25.7116 31.6923 29.2885 33.9459 33.511C36.9269 39.0976 40.6412 45.445 43.5743 48.4922C49.4415 54.5848 51.641 57.8019 51.641 57.8019L50.9517 47.4392Z" fill="#8569B4"/>
<path d="M56.3251 45.9266C56.3251 45.9266 52.2083 32.3178 57.5099 11.9186C57.9744 9.92201 57.0215 8.18299 55.5504 8.13672C54.1411 8.09316 52.6671 9.6144 52.3639 11.5341C51.7024 14.5643 50.9554 18.813 50.1964 23.9003C49.1907 30.632 48.3443 38.4601 48.9751 42.8473C50.2383 51.6213 50.0957 55.7635 50.0957 55.7635L56.3251 45.9266Z" fill="#8569B4"/>
<path d="M55.4027 63.3062C55.4027 63.3062 59.9553 74.1796 56.6541 89.0621C56.3782 90.5257 57.3368 91.9676 58.6396 92.1838C59.8866 92.3899 61.0849 91.4135 61.2235 89.9892C61.6029 87.763 61.9755 84.6192 62.3024 80.8368C62.7346 75.8335 62.9538 69.9758 62.1013 66.5563C60.3948 59.7178 60.2387 56.5805 60.2387 56.5805L55.4027 63.3062Z" fill="#8569B4"/>
<path d="M60.91 62.7993C60.91 62.7993 69.7191 72.8625 73.5895 91.6397C74.0135 93.4601 75.4854 94.6087 76.701 94.1734C77.8641 93.7572 78.4543 92.0091 77.9303 90.3052C77.2523 87.5561 76.1552 83.7606 74.7329 79.2586C72.8502 73.3025 70.3986 66.4779 68.125 63.0097C63.5778 56.0733 62.0312 52.5616 62.0312 52.5616L60.91 62.7993Z" fill="#8569B4"/>
<path d="M66.5989 54.0807C66.5989 54.0807 79.4843 60.5494 98.4248 58.4016C100.282 58.2479 101.941 59.514 102.031 61.0412C102.117 62.502 100.74 63.7762 98.9508 63.7768C96.1321 63.9659 92.1757 64.0435 87.4344 63.9988C81.1608 63.939 73.8524 63.5367 69.7217 62.1701C61.4596 59.4354 57.583 58.907 57.583 58.907L66.5989 54.0807Z" fill="#8569B4"/>
<path d="M66.3254 50.211C66.3254 50.211 79.6693 47.1507 93.5931 31.1939C94.9855 29.6855 96.9164 29.7181 97.7334 31.152C98.5154 32.5251 98.049 34.7842 96.6334 36.0922C94.4983 38.3377 91.4087 41.3072 87.6381 44.7296C82.649 49.258 76.6766 54.2044 72.7432 55.8812C64.8761 59.2332 61.5548 61.5472 61.5548 61.5472L66.3254 50.211Z" fill="#8569B4"/>
<path d="M47.8927 63.7164C47.8927 63.7164 43.6855 65.9045 47.022 70.3064L49.9931 65.8549L47.8927 63.7164Z" fill="#8569B4"/>
<path d="M53.4924 67.0204C53.4924 67.0204 53.9024 72.1755 48.6631 71.2285L50.7015 66.0995L53.4924 67.0204Z" fill="#8569B4"/>
</svg>
