<svg width="96" height="88" viewBox="0 0 96 88" fill="none" xmlns="http://www.w3.org/2000/svg">
<path d="M38.8968 37.8827C41.6108 31.4897 48.3737 27.9186 54.0019 29.9063C59.6302 31.894 61.9926 38.6878 59.2785 45.0808C56.5645 51.4737 49.8017 55.0449 44.1734 53.0572C38.5451 51.0695 36.1827 44.2756 38.8968 37.8827Z" fill="#8569B4"/>
<path d="M38.3569 50.4188C39.3436 47.8449 42.0915 46.3934 44.4945 47.1768C46.8975 47.9602 48.0457 50.6818 47.059 53.2556C46.0723 55.8295 43.3244 57.281 40.9214 56.4976C38.5184 55.7142 37.3702 52.9926 38.3569 50.4188Z" fill="#8569B4"/>
<path d="M39.3922 50.5776C39.3922 50.5776 29.9006 51.5619 21.1446 60.8603C20.2621 61.734 18.845 61.5688 18.1181 60.5776C17.4217 59.6288 17.56 58.2 18.4769 57.4585C19.8384 56.1631 21.8312 54.4702 24.2828 52.5342C27.5273 49.9728 31.4539 47.2142 34.1816 46.423C39.6378 44.8392 41.8607 43.5896 41.8607 43.5896L39.3922 50.5776Z" fill="#8569B4"/>
<path d="M38.0823 47.2424C38.0823 47.2424 26.9207 44.0622 11.8956 49.1794C10.4166 49.6332 8.92753 48.8596 8.67356 47.5922C8.43073 46.3795 9.39026 45.0688 10.8337 44.7559C13.0845 44.1038 16.2666 43.346 20.0982 42.5547C25.1679 41.5079 31.1104 40.5665 34.6045 40.9929C41.5937 41.8441 44.7837 41.6111 44.7837 41.6111L38.0823 47.2424Z" fill="#8569B4"/>
<path d="M41.3597 39.4407C41.3597 39.4407 32.4134 32.4134 26.3475 17.473C25.7194 16.0313 24.3028 15.2974 23.3401 15.8331C22.4182 16.3461 22.1793 17.8744 22.8752 19.2058C23.8576 21.3772 25.3482 24.3509 27.2218 27.8613C29.7001 32.5058 32.788 37.7827 35.2264 40.3161C40.1042 45.3813 41.9327 48.0558 41.9327 48.0558L41.3597 39.4407Z" fill="#8569B4"/>
<path d="M45.8271 38.1825C45.8271 38.1825 42.4046 26.8686 46.8121 9.90949C47.1983 8.24963 46.4061 6.80388 45.183 6.76541C44.0114 6.72919 42.786 7.99389 42.5339 9.58989C41.9839 12.1091 41.363 15.6412 40.7319 19.8707C39.8958 25.4671 39.1922 31.9751 39.7166 35.6224C40.7668 42.9168 40.6482 46.3605 40.6482 46.3605L45.8271 38.1825Z" fill="#8569B4"/>
<path d="M45.0599 52.6303C45.0599 52.6303 48.8447 61.67 46.1002 74.0427C45.8709 75.2596 46.6678 76.4583 47.7509 76.638C48.7876 76.8094 49.7838 75.9976 49.8991 74.8135C50.2145 72.9627 50.5242 70.3492 50.796 67.2046C51.1553 63.0451 51.3376 58.1751 50.6288 55.3324C49.2101 49.6471 49.0803 47.0388 49.0803 47.0388L45.0599 52.6303Z" fill="#8569B4"/>
<path d="M49.6391 52.2092C49.6391 52.2092 56.9627 60.5753 60.1803 76.186C60.5328 77.6994 61.7565 78.6543 62.7671 78.2925C63.734 77.9464 64.2247 76.4931 63.7891 75.0766C63.2254 72.791 62.3134 69.6356 61.1309 65.8928C59.5657 60.9411 57.5276 55.2674 55.6374 52.3841C51.857 46.6174 50.5712 43.698 50.5712 43.698L49.6391 52.2092Z" fill="#8569B4"/>
<path d="M54.3672 44.9612C54.3672 44.9612 65.0796 50.339 80.826 48.5535C82.3698 48.4257 83.7492 49.4783 83.8239 50.7479C83.8956 51.9624 82.7511 53.0217 81.2633 53.0222C78.92 53.1794 75.6308 53.244 71.6891 53.2068C66.4734 53.157 60.3975 52.8226 56.9634 51.6865C50.0946 49.4129 46.8718 48.9736 46.8718 48.9736L54.3672 44.9612Z" fill="#8569B4"/>
<path d="M54.141 41.744C54.141 41.744 65.2347 39.1998 76.8104 25.9339C77.968 24.6799 79.5732 24.707 80.2524 25.8991C80.9026 27.0407 80.5148 28.9188 79.338 30.0062C77.5629 31.873 74.9944 34.3417 71.8596 37.187C67.7118 40.9517 62.7466 45.064 59.4766 46.458C52.9361 49.2447 50.1749 51.1685 50.1749 51.1685L54.141 41.744Z" fill="#8569B4"/>
<path d="M38.8156 52.9712C38.8156 52.9712 35.318 54.7903 38.0918 58.45L40.5618 54.7491L38.8156 52.9712Z" fill="#8569B4"/>
<path d="M43.4721 55.7178C43.4721 55.7178 43.813 60.0035 39.4573 59.2163L41.1518 54.9522L43.4721 55.7178Z" fill="#8569B4"/>
</svg>
