<svg width="109" height="109" viewBox="0 0 109 109" fill="none" xmlns="http://www.w3.org/2000/svg">
<g clip-path="url(#clip0)">
<path d="M36.4581 19.4641C37.8202 18.9451 39.2415 19.9651 39.4492 21.7179C40.5275 33.84 44.4967 41.9813 47.0038 46.0497C46.9793 46.1789 46.9591 46.3038 46.9346 46.4244C46.9855 46.3551 47.0493 46.2901 47.1088 46.2208C47.0781 46.1651 47.043 46.1052 47.0038 46.0497C47.0895 45.6146 47.175 45.1623 47.2561 44.6972C48.0237 40.4118 51.3293 32.9399 54.4397 26.5361C56.7927 21.704 58.8703 17.6741 60.4785 14.8094C61.3796 12.987 63.3093 11.6547 64.6786 11.8237C66.1083 12.0008 66.501 13.7649 65.4114 15.6491C59.1766 25.9153 56.2058 34.5498 54.7877 40.3587C59.2129 38.3258 63.6338 38.3313 66.4167 40.8234C69.4904 43.5753 69.746 48.6433 67.5465 53.7536C73.2024 51.7962 81.7496 47.9265 91.6645 40.4113C93.4271 39.1363 95.231 39.3318 95.5554 40.7309C95.8706 42.0699 94.744 44.1222 93.0224 45.2076C90.3375 47.1096 86.5363 49.5931 81.9563 52.4358C75.9022 56.1983 68.7935 60.2623 64.5919 61.4763C64.1374 61.6091 63.6958 61.7376 63.2671 61.8616C67.585 63.9193 76.1323 66.9946 88.3561 66.7747C90.1281 66.7941 91.2986 68.0958 90.9221 69.4966C90.5664 70.8413 88.9045 71.8832 87.2386 71.7296C84.5588 71.662 80.8532 71.3882 76.4534 70.9353C70.6329 70.3396 63.9524 69.3427 60.5123 67.7378C60.0801 67.535 59.6567 67.3408 59.2505 67.155C59.3614 67.4852 59.4769 67.8283 59.5967 68.1842C60.8174 71.7904 61.1655 78.6938 61.2159 84.6924C61.2465 89.2247 61.1706 93.0398 60.9975 95.7891C60.9941 97.505 59.8461 99.1532 58.5375 99.4438C57.1646 99.7479 56.0288 98.4803 56.1731 96.6644C57.5671 83.2827 55.0051 74.0028 53.4384 69.8018C53.4033 70.1418 53.3812 70.4946 53.3549 70.8604C53.1198 74.2467 51.0549 79.8891 49.0413 84.6882C47.5228 88.3134 46.1655 91.3222 45.0869 93.4386C44.4992 94.8025 43.0072 95.6365 41.8385 95.3239C40.6222 94.9902 40.1293 93.5107 40.8629 92.1198C47.3094 80.7251 47.8431 71.3931 47.8142 68.2412C46.7618 69.1747 45.5814 69.7954 44.4488 70.0544C43.7793 71.4061 42.1968 73.445 38.9659 72.5134L41.1673 69.6178C41.0417 69.5372 40.9203 69.4436 40.8031 69.3371C40.6425 69.1965 40.4989 69.0386 40.3725 68.872L37.6982 71.3717C36.3784 68.1533 38.4452 66.3597 39.7273 65.6006C39.9046 64.4724 40.4037 63.277 41.2135 62.1735C37.3357 62.6923 28.8495 64.5963 19.19 71.4599C17.8833 72.3311 16.3488 72.0001 15.8935 70.83C15.4517 69.707 16.1275 68.1403 17.4272 67.4154C19.4304 66.1212 22.2855 64.4542 25.7404 62.5671C30.3155 60.0685 35.7318 57.4165 39.0842 56.8247C39.4448 56.7615 39.7924 56.694 40.1315 56.6352C35.7721 55.524 26.2431 53.9708 13.0317 56.7792C11.2333 57.1084 9.85102 56.1182 10.0083 54.7235C10.162 53.3934 11.6835 52.0861 13.3931 51.8995C16.1233 51.4377 19.9198 50.9583 24.4434 50.5114C30.4406 49.9186 37.3602 49.5331 41.0931 50.3615C41.4509 50.4401 41.8001 50.5189 42.1448 50.5848C41.9215 50.2039 41.6851 49.8103 41.44 49.4081C39.475 46.1695 37.7678 39.6603 36.5551 33.9511C35.6409 29.6413 34.9746 26.0003 34.6199 23.3543C34.2887 21.7187 35.1603 19.961 36.4581 19.4641Z" stroke="#8569B4" stroke-miterlimit="10"/>
<path d="M47.0037 46.0491C47.043 46.1047 47.078 46.1646 47.1087 46.2202C47.0493 46.2895 46.9854 46.3546 46.9346 46.4238C46.9591 46.3032 46.9793 46.1783 47.0037 46.0491Z" stroke="#8569B4" stroke-miterlimit="10"/>
<path d="M47.0037 46.0491C47.043 46.1047 47.078 46.1646 47.1087 46.2202C47.0493 46.2895 46.9854 46.3546 46.9346 46.4238C46.9591 46.3032 46.9793 46.1783 47.0037 46.0491Z" stroke="#8569B4" stroke-miterlimit="10"/>
</g>
<defs>
<clipPath id="clip0">
<rect width="75.0611" height="78.278" fill="white" transform="translate(53.5791 108.443) rotate(-135.545)"/>
</clipPath>
</defs>
</svg>
