<svg width="92" height="83" viewBox="0 0 92 83" fill="none" xmlns="http://www.w3.org/2000/svg">
<path d="M38.262 33.9359C41.4361 27.7244 48.3638 25.0309 53.7354 27.9199C59.107 30.8088 60.8883 38.1862 57.7141 44.3976C54.54 50.6091 47.6123 53.3026 42.2407 50.4136C36.8692 47.5247 35.0878 40.1473 38.262 33.9359Z" fill="#5C3EAF"/>
<path d="M36.6765 46.6783C37.848 44.1617 40.6612 43.068 42.9599 44.2355C45.2587 45.403 46.1726 48.3896 45.0011 50.9062C43.8296 53.4228 41.0164 54.5164 38.7176 53.3489C36.4188 52.1815 35.505 49.1949 36.6765 46.6783Z" fill="#5C3EAF"/>
<path d="M37.6591 46.8891C37.6591 46.8891 28.1468 46.639 18.5278 54.8669C17.5646 55.6322 16.1758 55.2801 15.5546 54.1857C14.9594 53.138 15.2403 51.7156 16.2241 51.0881C17.7047 49.9604 19.8514 48.5147 22.4775 46.8838C25.9529 44.7263 30.1246 42.4592 32.9094 42.0187C38.4799 41.1362 40.8102 40.1674 40.8102 40.1674L37.6591 46.8891Z" fill="#5C3EAF"/>
<path d="M36.5036 43.186C36.5036 43.186 25.7648 38.5613 10.3885 41.6742C8.8798 41.931 7.48136 40.9669 7.35401 39.6743C7.23234 38.4373 8.31063 37.261 9.77028 37.1395C12.0625 36.7869 15.2871 36.4514 19.1579 36.168C24.2795 35.7932 30.2549 35.6376 33.6724 36.5198C40.5085 38.2828 43.6895 38.4699 43.6895 38.4699L36.5036 43.186Z" fill="#5C3EAF"/>
<path d="M40.482 35.8657C40.482 35.8657 32.0771 27.457 27.4084 11.3286C26.9142 9.76648 25.545 8.82315 24.5098 9.24214C23.5185 9.64338 23.1204 11.1771 23.6947 12.6354C24.4759 14.9931 25.6938 18.2415 27.2477 22.0915C29.3029 27.1854 31.9153 33.0095 34.1436 35.9346C38.6013 41.7835 40.1939 44.771 40.1939 44.771L40.482 35.8657Z" fill="#5C3EAF"/>
<path d="M44.7508 35.3245C44.7508 35.3245 42.4457 23.2814 48.6277 6.50295C49.1871 4.85474 48.534 3.26842 47.3021 3.06571C46.1219 2.87217 44.7548 4.00365 44.3374 5.60437C43.525 8.11072 42.5375 11.6449 41.4688 15.8918C40.0536 21.5112 38.6793 28.0818 38.8375 31.8869C39.1552 39.4969 38.6844 43.0076 38.6844 43.0076L44.7508 35.3245Z" fill="#5C3EAF"/>
<path d="M43.2915 49.9517C43.2915 49.9517 46.2078 59.7192 42.1676 72.026C41.8114 73.2418 42.4971 74.5766 43.5766 74.9059C44.6098 75.2204 45.702 74.5223 45.9393 73.3248C46.4472 71.4711 47.027 68.8353 47.6223 65.6504C48.4096 61.4375 49.0897 56.4732 48.6606 53.4661C47.8011 47.4519 47.9349 44.7626 47.9349 44.7626L43.2915 49.9517Z" fill="#5C3EAF"/>
<path d="M47.6857 50.23C47.6857 50.23 54.3846 59.8051 56.1367 76.2396C56.3482 77.8385 57.5118 78.9845 58.5876 78.7523C59.6168 78.5302 60.2666 77.1086 59.9598 75.5976C59.6081 73.1787 58.9848 69.8209 58.1418 65.8243C57.0259 60.5366 55.4955 54.4444 53.8388 51.2313C50.5253 44.8051 49.494 41.6378 49.494 41.6378L47.6857 50.23Z" fill="#5C3EAF"/>
<path d="M53.1171 43.7539C53.1171 43.7539 63.1955 50.5586 78.9791 50.8257C80.5217 50.8994 81.7835 52.1373 81.7306 53.4226C81.6801 54.6521 80.44 55.5665 78.9655 55.3722C76.6275 55.2235 73.3613 54.8578 69.4587 54.3045C64.2949 53.572 58.307 52.4408 55.0173 50.8499C48.4376 47.6669 45.2876 46.8038 45.2876 46.8038L53.1171 43.7539Z" fill="#5C3EAF"/>
<path d="M52.9298 40.3255C52.9298 40.3255 64.1985 39.2064 77.0285 27.3107C78.3042 26.1945 79.8948 26.4321 80.4486 27.7263C80.9787 28.9656 80.4041 30.8137 79.1261 31.7589C77.1756 33.4138 74.3768 35.5732 70.9777 38.0392C66.4804 41.3021 61.1365 44.8093 57.7498 45.7903C50.9762 47.751 48.0411 49.3343 48.0411 49.3343L52.9298 40.3255Z" fill="#5C3EAF"/>
<path d="M36.9455 49.3737C36.9455 49.3737 33.2523 50.7701 35.6601 54.8779L38.515 51.4221L36.9455 49.3737Z" fill="#5C3EAF"/>
<path d="M41.3372 52.8358C41.3372 52.8358 41.2405 57.2426 36.9802 55.8687L39.103 51.7516L41.3372 52.8358Z" fill="#5C3EAF"/>
</svg>
