<svg width="104" height="105" viewBox="0 0 104 105" fill="none" xmlns="http://www.w3.org/2000/svg">
<g clip-path="url(#clip0)">
<path d="M13.0074 58.5802C12.9241 57.125 14.3258 56.0783 16.0595 56.4098C27.941 59.044 36.9009 57.7198 41.5366 56.5589C41.6524 56.6212 41.7653 56.6782 41.8729 56.738C41.8223 56.6686 41.7796 56.5881 41.7314 56.5105C41.6691 56.5229 41.6014 56.5382 41.5366 56.5589C41.1478 56.3457 40.7425 56.1276 40.3236 55.9098C36.4703 53.8834 30.3461 48.475 25.1812 43.5752C21.2858 39.8725 18.0718 36.6745 15.8268 34.2759C14.3617 32.8664 13.6747 30.6244 14.2495 29.3701C14.8502 28.0608 16.6505 28.2193 18.1175 29.8273C26.0205 38.8722 33.354 44.3127 38.4631 47.4194C37.8621 42.5868 39.2029 38.3741 42.4192 36.4742C45.9712 34.3754 50.8795 35.6628 55.0866 39.3034C54.9293 33.3204 53.8225 24.0036 49.6538 12.2816C48.9709 10.2161 49.7022 8.55551 51.134 8.66896C52.5057 8.77306 54.1217 10.467 54.6362 12.436C55.6383 15.5701 56.8573 19.9439 58.1836 25.1688C59.9414 32.0766 61.6679 40.081 61.5558 44.453C61.5452 44.9263 61.5342 45.3861 61.523 45.8323C64.7889 42.3378 70.3027 35.1189 73.7859 23.3998C74.3397 21.7165 75.9342 20.9939 77.1558 21.776C78.3303 22.5213 78.8214 24.4203 78.1717 25.962C77.2977 28.4962 75.9172 31.9459 74.1563 36.0033C71.83 41.3719 68.8615 47.4391 66.2923 50.2336C65.9685 50.5843 65.6554 50.9293 65.3556 51.2604C65.7039 51.2544 66.0658 51.248 66.4413 51.2412C70.2478 51.167 76.9338 52.9208 82.6673 54.6849C86.9971 56.025 90.611 57.2498 93.1796 58.2454C94.8143 58.767 96.0386 60.3593 95.9203 61.6946C95.7954 63.0952 94.244 63.795 92.5564 63.1089C80.2212 57.7373 70.6009 57.3762 66.1228 57.6005C66.4364 57.7367 66.766 57.8643 67.1068 57.9998C70.2638 59.2471 75.0188 62.9201 78.9853 66.2894C81.9824 68.8321 84.4406 71.035 86.1322 72.7025C87.2548 73.6748 87.5991 75.349 86.9481 76.3687C86.2625 77.4273 84.7033 77.4503 83.599 76.3308C74.6842 66.7431 65.9494 63.4151 62.9361 62.4905C63.508 63.7757 63.7431 65.0884 63.6479 66.2463C64.7341 67.2929 66.1997 69.4175 64.3356 72.2159L62.2403 69.2426C62.1255 69.338 61.9996 69.4254 61.8627 69.505C61.6802 69.6156 61.4863 69.7048 61.2892 69.775L62.8642 73.0795C59.3975 73.3654 58.3121 70.8533 57.9758 69.4018C56.9539 68.8919 55.9651 68.055 55.1578 66.9497C54.4809 70.8031 53.7322 79.4679 57.357 90.7496C57.7927 92.2584 57.0136 93.6212 55.7606 93.7017C54.5566 93.7837 53.2672 92.6661 52.9688 91.2082C52.3403 88.9075 51.6138 85.6822 50.8586 81.8187C49.8588 76.7026 48.9671 70.7381 49.4157 67.3636C49.4643 67.0007 49.505 66.649 49.5514 66.3079C47.1752 70.128 42.8158 78.7425 41.5018 92.185C41.2723 93.9989 39.9107 95.0174 38.6287 94.4461C37.4072 93.8978 36.6206 92.0525 36.9593 90.3664C37.3438 87.6242 38.0337 83.8603 38.9743 79.413C40.221 73.517 41.9439 66.8042 43.8613 63.4959C44.0444 63.1787 44.2249 62.8696 44.3919 62.5609C43.9614 62.6587 43.5147 62.7651 43.0573 62.8773C39.3763 63.7721 32.6556 63.4331 26.8468 62.8644C22.4622 62.4338 18.79 61.969 16.1605 61.5078C14.5012 61.3294 13.089 59.9675 13.0074 58.5802Z" stroke="#8569B4" stroke-miterlimit="10"/>
<path d="M41.5367 56.5592C41.6016 56.5385 41.6693 56.5232 41.7316 56.5107C41.7797 56.5884 41.8224 56.6689 41.873 56.7383C41.7655 56.6785 41.6525 56.6215 41.5367 56.5592Z" stroke="#8569B4" stroke-miterlimit="10"/>
<path d="M41.5367 56.5592C41.6016 56.5385 41.6693 56.5232 41.7316 56.5107C41.7797 56.5884 41.8224 56.6689 41.873 56.7383C41.7655 56.6785 41.6525 56.6215 41.5367 56.5592Z" stroke="#8569B4" stroke-miterlimit="10"/>
</g>
<defs>
<clipPath id="clip0">
<rect width="75.0611" height="78.278" fill="white" transform="translate(103.002 69.1406) rotate(152.039)"/>
</clipPath>
</defs>
</svg>
