<svg width="65" height="56" viewBox="0 0 65 56" fill="none" xmlns="http://www.w3.org/2000/svg">
<path d="M26.0122 30.4177C23.1302 26.9162 23.3181 22.0875 26.432 19.6325C29.5458 17.1775 34.4064 18.0258 37.2885 21.5272C40.1705 25.0287 39.9826 29.8574 36.8687 32.3124C33.7549 34.7674 28.8942 33.9191 26.0122 30.4177Z" fill="#F6AE32"/>
<path d="M33.2009 34.6625C32.0036 33.3122 32.0799 31.3514 33.3715 30.2829C34.663 29.2145 36.6806 29.443 37.878 30.7933C39.0753 32.1436 38.9989 34.1044 37.7074 35.1729C36.4158 36.2414 34.3982 36.0129 33.2009 34.6625Z" fill="#F6AE32"/>
<path d="M33.5792 34.1298C33.5792 34.1298 30.9666 39.7374 33.382 47.6044C33.5889 48.3769 33.0193 49.1139 32.2058 49.2009C31.4269 49.2845 30.6514 48.7487 30.532 47.9995C30.243 46.8245 29.9368 45.17 29.6444 43.1816C29.2578 40.5504 28.9863 37.4756 29.4448 35.7009C30.3612 32.1505 30.3869 30.51 30.3869 30.51L33.5792 34.1298Z" fill="#F6AE32"/>
<path d="M31.0727 33.8588C31.0727 33.8588 25.5337 39.0649 23.408 49.0403C23.1704 50.0065 22.2333 50.5908 21.4295 50.332C20.6604 50.0842 20.2381 49.1365 20.5437 48.2346C20.9271 46.7764 21.5621 44.7667 22.3956 42.385C23.4984 39.2337 24.9531 35.6302 26.3643 33.8207C29.1859 30.2008 30.1213 28.3523 30.1213 28.3523L31.0727 33.8588Z" fill="#F6AE32"/>
<path d="M27.7377 29.5931C27.7377 29.5931 20.5467 32.4275 9.7199 31.0347C8.66038 30.9248 7.74326 31.497 7.72502 32.2228C7.70756 32.9179 8.51907 33.5525 9.5374 33.5877C11.1457 33.7324 13.3982 33.8474 16.0964 33.9179C19.6663 34.0115 23.8159 33.962 26.1373 33.3907C30.7796 32.2472 32.9735 32.0712 32.9735 32.0712L27.7377 29.5931Z" fill="#F6AE32"/>
<path d="M28.5191 26.9047C28.5191 26.9047 20.7406 25.1605 12.3362 17.1288C11.4982 16.3683 10.3831 16.347 9.94318 17.0291C9.52214 17.6827 9.84281 18.791 10.6893 19.4545C11.9735 20.588 13.8253 22.0921 16.081 23.8293C19.0655 26.1285 22.6278 28.6497 24.9378 29.5407C29.5581 31.3221 31.5297 32.512 31.5297 32.512L28.5191 26.9047Z" fill="#F6AE32"/>
<path d="M36.8646 31.5638C36.8646 31.5638 43.4445 32.3543 49.737 37.9507C50.3698 38.4779 51.3433 38.4147 51.8192 37.8563C52.2744 37.3216 52.1409 36.4895 51.4883 36.0379C50.5144 35.2549 49.0928 34.2266 47.3477 33.0467C45.0394 31.4862 42.2552 29.795 40.3508 29.2721C36.5419 28.2272 34.9728 27.4509 34.9728 27.4509L36.8646 31.5638Z" fill="#F6AE32"/>
<path d="M38.1689 29.0154C38.1689 29.0154 45.6136 27.5004 55.8676 30.7117C56.8758 30.9996 57.8606 30.6026 58.0007 29.9009C58.1348 29.2297 57.4553 28.474 56.4749 28.2656C54.9413 27.849 52.7776 27.3511 50.176 26.8187C46.7338 26.1148 42.7046 25.4497 40.3595 25.6055C35.6692 25.9171 33.5134 25.7119 33.5134 25.7119L38.1689 29.0154Z" fill="#F6AE32"/>
<path d="M35.7133 24.1009C35.7133 24.1009 42.3811 19.8532 46.628 10.5102C47.0714 9.60938 48.1364 9.17755 48.8892 9.54196C49.6093 9.89046 49.8334 10.8668 49.3357 11.6958C48.6415 13.0515 47.5776 14.9044 46.237 17.0884C44.4628 19.978 42.2375 23.2558 40.4369 24.8055C36.8348 27.9048 35.5043 29.5597 35.5043 29.5597L35.7133 24.1009Z" fill="#F6AE32"/>
<path d="M33.6194 23.3235C33.6194 23.3235 35.8704 16.3139 32.0994 5.5823C31.7641 4.53251 32.3178 3.64553 33.2329 3.65043C34.1093 3.6553 35.0625 4.47652 35.2952 5.48342C35.7769 7.07512 36.3397 9.3034 36.93 11.969C37.7111 15.4958 38.4185 19.5908 38.1265 21.8644C37.5415 26.4115 37.7255 28.5718 37.7255 28.5718L33.6194 23.3235Z" fill="#F6AE32"/>
<path d="M34.8774 35.199C34.8774 35.199 34.7537 37.763 37.8268 37.391L36.5054 34.7935L34.8774 35.199Z" fill="#F6AE32"/>
<path d="M38.0782 33.4777C38.0782 33.4777 40.6811 34.6766 38.7584 36.8613L36.8531 34.5292L38.0782 33.4777Z" fill="#F6AE32"/>
</svg>
