<svg width="131" height="130" viewBox="0 0 131 130" fill="none" xmlns="http://www.w3.org/2000/svg">
<g clip-path="url(#clip0)">
<path d="M50.8725 19.6744C52.6064 19.3226 54.1065 20.8256 54.0081 22.9659C52.8985 37.6965 56.0395 48.2324 58.2361 53.6011C58.1812 53.751 58.1323 53.8965 58.079 54.0361C58.1537 53.9633 58.243 53.898 58.3279 53.8268C58.3022 53.7541 58.2721 53.6754 58.2361 53.6011C58.4249 53.097 58.6169 52.5724 58.8061 52.0314C60.5741 47.0514 66.0127 38.7579 71.006 31.705C74.7809 26.3843 78.0671 21.9698 80.5605 18.8575C82.0005 16.8535 84.5754 15.6402 86.1818 16.1138C87.8588 16.609 87.9797 18.7995 86.3016 20.8401C76.8017 31.8998 71.5338 41.6518 68.685 48.3275C74.3871 46.7694 79.6804 47.6516 82.5195 51.1872C85.6555 55.0916 84.9578 61.2115 81.3116 66.8957C88.4726 65.6719 99.4748 62.7305 112.837 55.6943C115.2 54.5165 117.322 55.1079 117.433 56.8477C117.546 58.5137 115.79 60.7483 113.513 61.7071C109.921 63.4532 104.877 65.6744 98.8292 68.1716C90.8339 71.4785 81.5158 74.9374 76.2437 75.559C75.6731 75.6281 75.1188 75.6945 74.5808 75.7581C79.3442 79.0775 88.9711 84.4533 103.654 86.611C105.772 86.9852 106.916 88.7759 106.187 90.3789C105.495 91.9188 103.299 92.8374 101.334 92.3235C98.138 91.7118 93.7545 90.6499 88.5752 89.2361C81.7227 87.37 73.9198 84.853 70.118 82.2496C69.6405 81.9212 69.1718 81.6047 68.7222 81.3018C68.7897 81.7192 68.86 82.1529 68.9331 82.6029C69.6806 87.1634 68.7302 95.4996 67.6025 102.693C66.7415 108.127 65.895 112.681 65.1431 115.939C64.7992 117.993 63.0979 119.74 61.4733 119.829C59.7689 119.921 58.6598 118.178 59.1922 116.032C63.512 100.282 62.2818 88.6617 61.2376 83.3203C61.1282 83.7206 61.0319 84.1387 60.928 84.5715C59.9757 88.5804 56.3853 94.9285 53.0234 100.277C50.4869 104.318 48.2655 107.652 46.5547 109.973C45.5807 111.49 43.6287 112.193 42.291 111.587C40.9006 110.947 40.6032 109.077 41.7573 107.557C51.7343 95.1878 54.2217 84.1178 54.8113 80.3375C53.3662 81.247 51.8297 81.7565 50.422 81.8424C49.3525 83.3285 47.0535 85.4568 43.3688 83.7013L46.5786 80.6696C46.4442 80.5481 46.3174 80.412 46.1981 80.2613C46.0336 80.0611 45.8929 79.8436 45.7744 79.619L42.0767 82.0829C41.1336 77.9673 43.9639 76.2287 45.6497 75.5735C46.0855 74.2575 46.92 72.9248 48.1083 71.7637C43.3616 71.617 32.8217 72.2163 19.8944 78.5229C18.157 79.3073 16.3849 78.607 16.0715 77.1155C15.7647 75.6832 16.8843 73.9407 18.5844 73.3301C21.2397 72.1769 24.9891 70.7461 29.5002 69.1705C35.4741 67.0843 42.4858 64.9812 46.6178 64.9364C47.0621 64.9321 47.4918 64.9202 47.9095 64.9169C42.9089 62.7228 31.8049 58.9753 15.4271 59.722C13.2082 59.76 11.749 58.3003 12.2136 56.6613C12.661 55.0988 14.742 53.8346 16.8263 53.9498C20.1874 53.9375 24.829 54.1153 30.3349 54.476C37.6343 54.9539 45.9974 55.8627 50.3037 57.5941C50.7166 57.7592 51.1191 57.9226 51.5189 58.0698C51.3269 57.5695 51.1218 57.0513 50.9079 56.5211C49.1961 52.2534 48.4409 44.1201 48.1193 37.0428C47.8781 31.7005 47.8013 27.2081 47.9006 23.9691C47.8279 21.9447 49.2199 20.0125 50.8725 19.6744Z" stroke="#F6AE32" stroke-miterlimit="10"/>
<path d="M58.2358 53.6011C58.2717 53.6753 58.3017 53.7538 58.3274 53.8263C58.2427 53.8974 58.1536 53.9625 58.0791 54.0352C58.1322 53.8959 58.181 53.7507 58.2358 53.6011Z" stroke="#F6AE32" stroke-miterlimit="10"/>
<path d="M58.2358 53.6011C58.2717 53.6753 58.3017 53.7538 58.3274 53.8263C58.2427 53.8974 58.1536 53.9625 58.0791 54.0352C58.1322 53.8959 58.181 53.7507 58.2358 53.6011Z" stroke="#F6AE32" stroke-miterlimit="10"/>
</g>
<defs>
<clipPath id="clip0">
<rect width="91.1119" height="95.0167" fill="white" transform="translate(53.7529 129.623) rotate(-126.154)"/>
</clipPath>
</defs>
</svg>
