<svg width="43" height="37" viewBox="0 0 43 37" fill="none" xmlns="http://www.w3.org/2000/svg">
<path d="M17.372 19.893C15.5303 17.6593 15.6477 14.5767 17.6341 13.0078C19.6206 11.4389 22.724 11.9778 24.5657 14.2114C26.4074 16.4451 26.29 19.5277 24.3036 21.0966C22.3171 22.6656 19.2138 22.1267 17.372 19.893Z" fill="#F6AE32"/>
<path d="M21.9641 22.5985C21.199 21.7371 21.2467 20.4853 22.0706 19.8026C22.8945 19.1198 24.1826 19.2645 24.9477 20.1259C25.7128 20.9873 25.6651 22.239 24.8412 22.9218C24.0173 23.6046 22.7292 23.4598 21.9641 22.5985Z" fill="#F6AE32"/>
<path d="M22.2051 22.258C22.2051 22.258 20.5403 25.8392 22.0865 30.8599C22.219 31.3529 21.8558 31.8237 21.3365 31.8797C20.8393 31.9335 20.344 31.5919 20.2674 31.1136C20.0822 30.3638 19.8858 29.3077 19.6981 28.0385C19.4499 26.359 19.2749 24.3963 19.5666 23.2632C20.1496 20.9962 20.1652 19.9489 20.1652 19.9489L22.2051 22.258Z" fill="#F6AE32"/>
<path d="M20.6051 22.0875C20.6051 22.0875 17.072 25.414 15.7204 31.7832C15.5693 32.4001 14.9714 32.7736 14.4581 32.6088C13.967 32.451 13.6969 31.8463 13.8915 31.2704C14.1354 30.3393 14.5397 29.056 15.0705 27.5351C15.7728 25.5229 16.6995 23.2217 17.5993 22.0658C19.3986 19.7534 19.9948 18.5728 19.9948 18.5728L20.6051 22.0875Z" fill="#F6AE32"/>
<path d="M18.4741 19.3663C18.4741 19.3663 13.8851 21.1796 6.97274 20.2964C6.29631 20.2269 5.71116 20.5926 5.69991 21.056C5.68915 21.4997 6.20754 21.9044 6.85763 21.9263C7.88439 22.0178 9.32239 22.09 11.0449 22.1335C13.3239 22.1913 15.9729 22.1574 17.4545 21.7915C20.4174 21.0589 21.8178 20.9454 21.8178 20.9454L18.4741 19.3663Z" fill="#F6AE32"/>
<path d="M18.9711 17.6492C18.9711 17.6492 14.0045 16.5399 8.63496 11.4173C8.09959 10.9323 7.38773 10.9193 7.10726 11.355C6.83884 11.7725 7.04415 12.4798 7.58487 12.9028C8.40528 13.6258 9.58824 14.585 11.0292 15.6927C12.9357 17.1588 15.2111 18.7663 16.6862 19.3339C19.6367 20.4686 20.896 21.2271 20.896 21.2271L18.9711 17.6492Z" fill="#F6AE32"/>
<path d="M24.301 20.6184C24.301 20.6184 28.5019 21.1195 32.5219 24.6886C32.9261 25.0249 33.5476 24.984 33.8511 24.6272C34.1414 24.2857 34.0557 23.7545 33.6388 23.4666C33.0167 22.9673 32.1086 22.3116 30.994 21.5594C29.5195 20.5645 27.7413 19.4864 26.5253 19.1536C24.0932 18.4886 23.0911 17.9939 23.0911 17.9939L24.301 20.6184Z" fill="#F6AE32"/>
<path d="M25.1322 18.9927C25.1322 18.9927 29.8839 18.0215 36.4316 20.0659C37.0753 20.2492 37.7038 19.9952 37.7928 19.5472C37.8781 19.1186 37.4439 18.6365 36.8179 18.5041C35.8387 18.2389 34.4571 17.9222 32.7961 17.5838C30.5983 17.1363 28.0257 16.7139 26.5288 16.8147C23.5348 17.0162 22.1585 16.8863 22.1585 16.8863L25.1322 18.9927Z" fill="#F6AE32"/>
<path d="M23.562 15.8556C23.562 15.8556 27.8162 13.1403 30.5222 7.17368C30.8048 6.59837 31.4845 6.32212 31.9652 6.55434C32.4251 6.77642 32.5687 7.39957 32.2514 7.92904C31.809 8.79486 31.1308 9.97832 30.2762 11.3732C29.1452 13.2188 27.7264 15.3125 26.5778 16.3028C24.28 18.2833 23.4316 19.3404 23.4316 19.3404L23.562 15.8556Z" fill="#F6AE32"/>
<path d="M22.2252 15.3596C22.2252 15.3596 23.6583 10.8836 21.2452 4.03494C21.0306 3.36496 21.3835 2.79843 21.9677 2.80106C22.5272 2.80369 23.1361 3.32742 23.2852 3.97007C23.5936 4.98591 23.9541 6.40808 24.3324 8.10937C24.8329 10.3604 25.2868 12.9742 25.1016 14.4257C24.7306 17.3288 24.8493 18.7077 24.8493 18.7077L22.2252 15.3596Z" fill="#F6AE32"/>
<path d="M23.0343 22.9394C23.0343 22.9394 22.9567 24.5763 24.9183 24.3371L24.0733 22.6797L23.0343 22.9394Z" fill="#F6AE32"/>
<path d="M25.0769 21.8397C25.0769 21.8397 26.7391 22.6036 25.513 23.9993L24.2954 22.5116L25.0769 21.8397Z" fill="#F6AE32"/>
</svg>
