<svg width="106" height="84" viewBox="0 0 106 84" fill="none" xmlns="http://www.w3.org/2000/svg">
<path d="M42.2533 46.7155C36.4917 41.3418 35.5401 33.385 40.1279 28.9435C44.7158 24.502 53.1057 25.2577 58.8674 30.6314C64.6291 36.0051 65.5806 43.9619 60.9928 48.4033C56.4049 52.8448 48.015 52.0892 42.2533 46.7155Z" fill="#F6AE32"/>
<path d="M55.5193 52.1438C53.146 50.0769 52.7531 46.8427 54.6416 44.92C56.5302 42.9974 59.985 43.1144 62.3582 45.1813C64.7314 47.2482 65.1243 50.4824 63.2358 52.4051C61.3473 54.3277 57.8925 54.2108 55.5193 52.1438Z" fill="#F6AE32"/>
<path d="M55.7824 50.9668C55.7824 50.9668 52.5475 60.7056 58.0414 73.1772C58.5309 74.4078 57.7325 75.7321 56.407 76.0346C55.1379 76.3247 53.7558 75.5949 53.4151 74.3855C52.713 72.5088 51.8904 69.8463 51.0267 66.6318C49.8842 62.3779 48.8466 57.3717 49.2626 54.3617C50.0935 48.3403 49.8214 45.6358 49.8214 45.6358L55.7824 50.9668Z" fill="#F6AE32"/>
<path d="M50.9019 51.167C50.9019 51.167 42.8425 60.7071 41.2223 77.3035C41.0138 78.9172 39.5956 80.0504 38.2387 79.7902C36.9404 79.5409 36.0777 78.0881 36.4088 76.5651C36.7639 74.1246 37.4271 70.7399 38.3447 66.7128C39.5589 61.3844 41.2627 55.2529 43.2267 52.039C47.1537 45.6098 48.3358 42.4271 48.3358 42.4271L50.9019 51.167Z" fill="#F6AE32"/>
<path d="M44.2864 44.8085C44.2864 44.8085 32.4227 51.1879 13.4435 51.0515C11.5914 51.0836 10.1199 52.2598 10.2316 53.5128C10.3386 54.7126 11.8658 55.6354 13.632 55.4833C16.439 55.3966 20.3531 55.1242 25.0285 54.6821C31.2142 54.0978 38.3734 53.1461 42.2711 51.6783C50.0653 48.741 53.8208 47.9801 53.8208 47.9801L44.2864 44.8085Z" fill="#F6AE32"/>
<path d="M44.797 40.9997C44.797 40.9997 31.133 39.6069 15.1493 27.607C13.5636 26.4795 11.6502 26.6702 11.0324 27.9245C10.4413 29.1262 11.2103 30.9531 12.7913 31.9132C15.215 33.5869 18.6841 35.7775 22.891 38.2836C28.4572 41.6009 35.0567 45.1794 39.1887 46.23C47.4528 48.3298 51.0646 49.9596 51.0646 49.9596L44.797 40.9997Z" fill="#F6AE32"/>
<path d="M61.3452 46.4482C61.3452 46.4482 72.8059 46.4495 84.7255 54.7404C85.9171 55.5133 87.5771 55.205 88.284 54.1508C88.96 53.1415 88.5658 51.7439 87.355 51.1047C85.5268 49.9639 82.8806 48.495 79.6488 46.8332C75.3738 44.6351 70.2554 42.3111 66.8802 41.8071C60.1293 40.8004 57.2799 39.7935 57.2799 39.7935L61.3452 46.4482Z" fill="#F6AE32"/>
<path d="M62.8676 42.5C62.8676 42.5 75.5444 38.2758 94.0393 41.6414C95.8523 41.924 97.4908 41.0244 97.598 39.778C97.7006 38.5857 96.3691 37.4216 94.6199 37.2709C91.8664 36.8778 87.9987 36.4792 83.3614 36.1148C77.226 35.6334 70.075 35.3454 66.019 36.1189C57.907 37.6659 54.1104 37.7728 54.1104 37.7728L62.8676 42.5Z" fill="#F6AE32"/>
<path d="M57.8929 35.1215C57.8929 35.1215 68.0454 26.8522 73.2506 10.7086C73.8083 9.14544 75.4767 8.2288 76.7832 8.67821C78.033 9.10797 78.5868 10.6639 77.9263 12.12C77.0429 14.4778 75.6463 17.723 73.8577 21.5649C71.4907 26.6482 68.4559 32.4562 65.7908 35.349C60.4591 41.1347 58.5867 44.1076 58.5867 44.1076L57.8929 35.1215Z" fill="#F6AE32"/>
<path d="M53.3631 34.5154C53.3631 34.5154 55.7351 22.4968 47.417 5.50877C46.659 3.84036 47.4043 2.26694 48.9205 2.09597C50.3723 1.93253 52.1093 3.10247 52.6892 4.72008C53.7945 7.25491 55.1571 10.8253 56.6497 15.1127C58.6246 20.7854 60.5875 27.4108 60.5435 31.2234C60.4538 38.8485 61.1761 42.3808 61.1761 42.3808L53.3631 34.5154Z" fill="#F6AE32"/>
<path d="M58.4571 52.6492C58.4571 52.6492 58.7565 57.0093 63.8901 55.7672L61.1352 51.6388L58.4571 52.6492Z" fill="#F6AE32"/>
<path d="M63.6372 49.232C63.6372 49.232 68.2315 50.7242 65.4422 54.7529L61.7927 51.2299L63.6372 49.232Z" fill="#F6AE32"/>
</svg>
